<?xml version="1.0" encoding="UTF-8" standalone="no"?>
<!-- Created with Inkscape (http://www.inkscape.org/) -->

<svg
   width="20"
   height="20"
   viewBox="0 0 5.2916665 5.2916668"
   version="1.1"
   id="svg43487"
   xmlns="http://www.w3.org/2000/svg"
   xmlns:svg="http://www.w3.org/2000/svg">
  <defs
     id="defs43484" />
  <g
     id="layer1">
    <path
       id="arrow_left-7"
       style="color:#000000;fill:#000000;stroke-width:3.77952;stroke-linecap:round;stroke-linejoin:round;-inkscape-stroke:none"
       d="m 3.5308301,1.3302592 a 0.19844169,0.19844169 0 0 1 0.12247,0.0568 l 1.11934,1.11933 a 0.19846153,0.19846153 0 0 1 0,0.27906 l -1.11934,1.11934 a 0.19844169,0.19844169 0 0 1 -0.27906,0 0.19844169,0.19844169 0 0 1 0,-0.27958 l 0.78085,-0.78085 H 0.66117014 a 0.19844169,0.19844169 0 0 1 -0.19947,-0.1974 0.19844169,0.19844169 0 0 1 0.19947,-0.19948 H 4.1530201 l -0.77878,-0.77929 a 0.19844169,0.19844169 0 0 1 0,-0.28113 0.19844169,0.19844169 0 0 1 0.15659,-0.0568 z" />
  </g>
</svg>
