<?xml version="1.0" encoding="UTF-8" standalone="no"?>
<!-- Created with Inkscape (http://www.inkscape.org/) -->

<svg
   width="20"
   height="20"
   viewBox="0 0 5.2916665 5.2916668"
   version="1.1"
   id="svg43487"
   xmlns="http://www.w3.org/2000/svg"
   xmlns:svg="http://www.w3.org/2000/svg">
  <defs
     id="defs43484" />
  <g
     id="layer1">
    <path
       id="path43352"
       style="color:#000000;fill:#000000;stroke-width:3.77952;stroke-linecap:round;stroke-linejoin:round;-inkscape-stroke:none"
       d="m 2.9503585,4.2018481 a 0.19844169,0.19844169 0 0 1 -0.126763,0.0464 l -1.582979,1e-5 a 0.19846153,0.19846153 0 0 1 -0.197325,-0.19733 v -1.58298 a 0.19844169,0.19844169 0 0 1 0.197325,-0.19733 0.19844169,0.19844169 0 0 1 0.197693,0.19769 v 1.10429 l 2.470574,-2.47057 a 0.19844169,0.19844169 0 0 1 0.28063,-0.001 0.19844169,0.19844169 0 0 1 10e-6,0.2821 l -2.469114,2.46911 1.101722,3.7e-4 a 0.19844169,0.19844169 0 0 1 0.198789,0.19878 0.19844169,0.19844169 0 0 1 -0.07056,0.15089 z" />
  </g>
</svg>
