<?xml version="1.0" encoding="UTF-8" standalone="no"?>
<!-- Created with Inkscape (http://www.inkscape.org/) -->

<svg
   width="20"
   height="20"
   viewBox="0 0 5.2916665 5.2916668"
   version="1.1"
   id="svg43487"
   xmlns="http://www.w3.org/2000/svg"
   xmlns:svg="http://www.w3.org/2000/svg">
  <defs
     id="defs43484" />
  <g
     id="layer1">
    <path
       id="path43342"
       style="color:#000000;fill:#000000;stroke-width:3.77952;stroke-linecap:round;stroke-linejoin:round;-inkscape-stroke:none"
       d="m 1.3302592,1.7608365 a 0.19844169,0.19844169 0 0 1 0.0568,-0.12247 l 1.11933,-1.11933997 a 0.19846153,0.19846153 0 0 1 0.27906,0 l 1.11934,1.11933997 a 0.19844169,0.19844169 0 0 1 0,0.27906 0.19844169,0.19844169 0 0 1 -0.27958,0 l -0.78085,-0.78085 v 3.49392 a 0.19844169,0.19844169 0 0 1 -0.1974,0.19947 0.19844169,0.19844169 0 0 1 -0.19948,-0.19947 v -3.49185 l -0.77929,0.77878 a 0.19844169,0.19844169 0 0 1 -0.28113,0 0.19844169,0.19844169 0 0 1 -0.0568,-0.15659 z" />
  </g>
</svg>
