<?xml version="1.0" encoding="UTF-8" standalone="no"?>
<!-- Created with Inkscape (http://www.inkscape.org/) -->

<svg
   width="20"
   height="20"
   viewBox="0 0 5.2916665 5.2916668"
   version="1.1"
   id="svg43487"
   xmlns="http://www.w3.org/2000/svg"
   xmlns:svg="http://www.w3.org/2000/svg">
  <defs
     id="defs43484" />
  <g
     id="layer1">
    <path
       id="path43350"
       style="color:#000000;fill:#000000;stroke-width:3.77952;stroke-linecap:round;stroke-linejoin:round;-inkscape-stroke:none"
       d="m 4.2019372,2.3413066 a 0.19844169,0.19844169 0 0 1 0.04644,0.12676 l 7e-6,1.58298 a 0.19846153,0.19846153 0 0 1 -0.197326,0.19733 h -1.582985 a 0.19844169,0.19844169 0 0 1 -0.197326,-0.19733 0.19844169,0.19844169 0 0 1 0.197693,-0.19769 h 1.104289 l -2.470575,-2.47058 a 0.19844169,0.19844169 0 0 1 -0.0015,-0.28063 0.19844169,0.19844169 0 0 1 0.2821,0 l 2.469111,2.46911 3.6e-4,-1.10172 a 0.19844169,0.19844169 0 0 1 0.198789,-0.19879 0.19844169,0.19844169 0 0 1 0.15089,0.0706 z" />
  </g>
</svg>
