<?xml version="1.0" encoding="UTF-8" standalone="no"?>
<!-- Created with Inkscape (http://www.inkscape.org/) -->

<svg
   width="20"
   height="20"
   viewBox="0 0 5.2916665 5.2916668"
   version="1.1"
   id="svg43487"
   xmlns="http://www.w3.org/2000/svg"
   xmlns:svg="http://www.w3.org/2000/svg">
  <defs
     id="defs43484" />
  <g
     id="layer1">
    <path
       id="path43366"
       style="color:#000000;fill:#000000;stroke-width:3.77953;stroke-linecap:round;stroke-linejoin:round;-inkscape-stroke:none"
       d="m 1.4791366,1.0761403 a 0.20274719,0.20274719 0 0 1 0.2038,0.20328 0.20274719,0.20274719 0 0 1 -0.2038,0.2038 c -0.22126,0 -0.36264,0.0738 -0.46094,0.18163 -0.0983,0.10782 -0.15110999,0.25806 -0.15152999,0.41078 -5.4e-4,0.1527 0.0524,0.30172 0.14994999,0.40919 0.0975,0.10745 0.23866,0.18163 0.46093,0.18163 h 2.66 l -0.7962,-0.79621 a 0.20274719,0.20274719 0 0 1 0,-0.28723 0.20274719,0.20274719 0 0 1 0.28511,0 l 1.14362,1.1431 a 0.20276746,0.20276746 0 0 1 0,0.28775 l -1.14362,1.14309 a 0.20274719,0.20274719 0 0 1 -0.28511,0 0.20274719,0.20274719 0 0 1 0,-0.28722 l 0.79568,-0.79621 h -2.65948 c -0.32117,0 -0.58925999,-0.12444 -0.76240999,-0.31521 -0.17315,-0.19077 -0.25411,-0.43987 -0.25343,-0.6848 5.4e-4,-0.24492 0.0835,-0.49175 0.25713,-0.68216 0.1736,-0.19041 0.43982999,-0.31521 0.76029999,-0.31521 z" />
  </g>
</svg>
