<?xml version="1.0" encoding="UTF-8" standalone="no"?>
<!-- Created with Inkscape (http://www.inkscape.org/) -->

<svg
   width="20"
   height="20"
   viewBox="0 0 5.2916665 5.2916668"
   version="1.1"
   id="svg41580"
   xmlns="http://www.w3.org/2000/svg"
   xmlns:svg="http://www.w3.org/2000/svg">
  <defs
     id="defs41577" />
  <g
     id="layer1">
    <g
       id="potion"
       transform="translate(-60.083467,-123.5876)">
      <path
         id="path27626-5"
         style="color:#000000;fill:#000000;stroke-width:3.77953;stroke-linecap:round;stroke-linejoin:round;-inkscape-stroke:none"
         d="m 62.092218,123.90935 a 0.13161909,0.13161909 0 0 0 -0.132133,0.13214 0.13161909,0.13161909 0 0 0 0.03187,0.0859 h -0.09409 -0.149614 a 0.19744862,0.19744862 0 0 0 -0.01954,0.39383 c 0.002,0.002 0.0077,0.006 0.02109,0.0123 0.0357,0.0192 0.09967,0.0644 0.183031,0.16503 0.0244,0.0294 0.0644,0.22182 0.05399,0.39846 -0.0058,0.0978 -0.01827,0.18679 -0.02827,0.24781 -0.517522,0.32317 -0.884853,0.77112 -0.947043,1.49306 a 0.19744862,0.19744862 0 0 0 -0.002,0.0154 c -2e-6,0.93958 0.773827,1.70436 1.71979,1.70437 0.945966,0 1.719795,-0.76479 1.719793,-1.70437 a 0.19744862,0.19744862 0 0 0 0,-5.3e-4 0.19744862,0.19744862 0 0 0 0,-5.3e-4 0.19744862,0.19744862 0 0 0 0,-5.2e-4 0.19744862,0.19744862 0 0 0 0,-5.2e-4 c -0.009,-0.58593 -0.370835,-1.20106 -0.946013,-1.51363 -0.0073,-0.0607 -0.0158,-0.14437 -0.018,-0.23496 -0.0043,-0.17728 0.03906,-0.37118 0.06632,-0.4041 0.08622,-0.1041 0.149679,-0.15041 0.180463,-0.16916 0.01103,-0.007 0.01641,-0.009 0.01903,-0.0103 a 0.19747648,0.19747648 0 0 0 -0.04011,-0.39177 h -0.149614 -0.09357 a 0.13161909,0.13161909 0 0 0 0.03136,-0.0859 0.13161909,0.13161909 0 0 0 -0.132132,-0.13214 z m 0.160925,0.61234 h 0.977375 c -0.115764,0.18838 -0.144373,0.40352 -0.139844,0.59074 0.005,0.2112 0.03702,0.38869 0.03702,0.38869 a 0.19742888,0.19742888 0 0 0 0.0015,0.007 0.19742888,0.19742888 0 0 0 0.0057,0.0201 0.19742888,0.19742888 0 0 0 0.0041,0.0113 0.19742888,0.19742888 0 0 0 0.09923,0.10796 c 0.47983,0.22212 0.804305,0.76605 0.812335,1.20874 -0.0015,0.72272 -0.587513,1.30797 -1.321333,1.30797 -0.730915,0 -1.313176,-0.58149 -1.319275,-1.30025 0.05762,-0.63165 0.323247,-0.93055 0.81542,-1.22005 a 0.19742888,0.19742888 0 0 0 0.01029,-0.007 0.19742888,0.19742888 0 0 0 0.0062,-0.004 0.19742888,0.19742888 0 0 0 0.0062,-0.004 0.19742888,0.19742888 0 0 0 0.0098,-0.007 0.19742888,0.19742888 0 0 0 0.0026,-0.002 0.19742888,0.19742888 0 0 0 0.04319,-0.0484 0.19742888,0.19742888 0 0 0 10e-4,-0.002 0.19742888,0.19742888 0 0 0 0.02468,-0.0612 c 0,0 0.0021,-0.01 0.0031,-0.0138 a 0.19742888,0.19742888 0 0 0 5.27e-4,-0.003 c 0.0084,-0.0397 0.03809,-0.18911 0.04884,-0.37172 0.01109,-0.18805 -0.01195,-0.40699 -0.128534,-0.59846 z" />
      <g
         id="path27626-6-6">
        <path
           style="color:#000000;fill:#000000;stroke-width:0.396875;stroke-linecap:round;stroke-linejoin:round;-inkscape-stroke:none"
           d="m 63.583244,126.93933 c 10e-7,0.45194 -0.372067,0.81831 -0.831032,0.81831 -0.458966,0 -0.831034,-0.36637 -0.831034,-0.81831 z"
           id="path34377" />
        <path
           style="color:#000000;fill:#000000;stroke-linecap:round;stroke-linejoin:round;-inkscape-stroke:none"
           d="m 61.921875,126.74023 a 0.19845734,0.19845734 0 0 0 -0.199219,0.19922 c 0,0.56085 0.46473,1.01758 1.029297,1.01758 0.564567,0 1.029298,-0.45673 1.029297,-1.01758 a 0.19845734,0.19845734 0 0 0 -0.197266,-0.19922 z m 0.400391,0.39844 h 0.859375 c -0.107421,0.18916 -0.189885,0.41992 -0.429688,0.41992 -0.239804,0 -0.322266,-0.23076 -0.429687,-0.41992 z"
           id="path34379" />
      </g>
    </g>
  </g>
</svg>
