<?xml version="1.0" encoding="UTF-8" standalone="no"?>
<!-- Created with Inkscape (http://www.inkscape.org/) -->

<svg
   width="20"
   height="20"
   viewBox="0 0 5.2916665 5.2916668"
   version="1.1"
   id="svg39836"
   xmlns="http://www.w3.org/2000/svg"
   xmlns:svg="http://www.w3.org/2000/svg">
  <defs
     id="defs39833" />
  <g
     id="layer1">
    <path
       id="scroll"
       style="color:#000000;fill:#000000;fill-rule:evenodd;stroke-width:0.471084;stroke-linecap:round;-inkscape-stroke:none"
       d="m 2.9333694,0.59516333 -2.083153,5.4e-4 v 5.5e-4 c -0.01042,-9e-5 -0.02087,-8.2e-4 -0.03127,-5.5e-4 -0.338492,0.009 -0.667499,0.20082 -0.783435,0.55338997 -0.111155,0.33803 0.04083,0.75823 0.42299,0.86665 0.044,0.0125 0.08854,0.019 0.133047,0.0207 v 0.004 h 0.831141 l 0.02014,1.65486 h 0.0011 c 0.01669,0.4103 0.264038,0.8013 0.671063,0.9467 0.107384,0.0384 0.22169,0.0556 0.33447,0.0525 0.0011,-3e-5 0.0022,3e-5 0.0032,0 v 0.002 h 2.171672 c 0.211497,0 0.395515,-0.0983 0.507272,-0.23853 0.111754,-0.14021 0.159972,-0.31227 0.160081,-0.48236 1.06e-4,-0.17009 -0.0483,-0.34259 -0.160081,-0.48289 -0.111776,-0.1403 -0.295569,-0.24065 -0.507272,-0.24065 h -0.450555 v -1.74497 -0.002 c 8.14e-4,-0.34378 -0.12524,-0.62044997 -0.362562,-0.75692997 -0.237835,-0.13678 -0.526456,-0.15266 -0.877788,-0.15266 z M 0.8353744,1.0022533 c 0.0049,-9e-5 0.0099,5.4e-4 0.01485,5.4e-4 v 0.002 h 0.03552 c 0.04381,0.003 0.08756,0.012 0.129335,0.027 0.239577,0.0863 0.39762,0.33852 0.400728,0.60003 h -0.293656 c 0.01528,-0.0922 0.0014,-0.18293 -0.04346,-0.26768 -0.04864,-0.0922 -0.149768,-0.1796 -0.277225,-0.19559 a 0.20372959,0.20335968 0 0 0 -0.227927,0.17651 0.20372959,0.20335968 0 0 0 0.145239,0.21627 c 5.42e-4,0.003 0.0011,0.007 0.0011,0.007 -0.0051,0.023 -0.01433,0.0346 -0.04346,0.0482 -0.02915,0.0136 -0.07494,0.0174 -0.106544,0.008 -0.131278,-0.0373 -0.193278,-0.20913 -0.147358,-0.34878 0.05636,-0.17141 0.231466,-0.27015 0.412919,-0.27351 z m 0.784497,0.002 h 1.313498 c 0.332483,0 0.563023,0.0326 0.673182,0.0959 0.110158,0.0634 0.161709,0.13869 0.16061,0.40444 v 1.74709 h -1.114195 v 5.5e-4 c -0.08147,8e-5 -0.162198,0.018 -0.237469,0.0535 -0.122521,0.0578 -0.233789,0.17403 -0.267683,0.32864 -0.02204,0.10057 -0.0086,0.20057 0.04028,0.2926 0.04887,0.092 0.149763,0.1789 0.277223,0.19453 a 0.20372959,0.20335968 0 0 0 0.227397,-0.17704 0.20372959,0.20335968 0 0 0 -0.177569,-0.22687 c 0.01425,0.002 0.03294,0.0187 0.03286,0.0186 -7.6e-5,-1.3e-4 -0.0022,-0.0146 -0.0022,-0.0148 0.005,-0.0229 0.01441,-0.034 0.04346,-0.0477 0.02905,-0.0137 0.07497,-0.0173 0.106543,-0.008 0.131224,0.0369 0.193392,0.20808 0.147888,0.34772 -0.07448,0.22856 -0.36057,0.32793 -0.59155,0.24542 -0.244682,-0.0874 -0.404978,-0.34724 -0.402321,-0.61435 a 0.20372959,0.20335968 0 0 0 -5.43e-4,-5.4e-4 l -0.02543,-2.0646 h -0.0027 c -0.01143,-0.20712 -0.08147,-0.40811 -0.201425,-0.57459 z m 0.466456,0.39437 a 0.13569628,0.13569628 0 0 0 -0.136226,0.1341 0.13569628,0.13569628 0 0 0 0.136226,0.13623 h 1.197945 a 0.13569628,0.13569628 0 0 0 0.134106,-0.13623 0.13569628,0.13569628 0 0 0 -0.134106,-0.1341 z m 0.580949,0.5571 a 0.13569628,0.13569628 0 0 0 -0.136226,0.13622 0.13569628,0.13569628 0 0 0 0.136226,0.13411 h 0.609044 a 0.13569628,0.13569628 0 0 0 0.136228,-0.13411 0.13569628,0.13569628 0 0 0 -0.136228,-0.13622 z m -0.352493,0.5889 a 0.13569628,0.13569628 0 0 0 -0.134635,0.13622 0.13569628,0.13569628 0 0 0 0.134635,0.13623 h 1.023556 a 0.13569628,0.13569628 0 0 0 0.134106,-0.13623 0.13569628,0.13569628 0 0 0 -0.134106,-0.13622 z m 0.904821,1.11578 h 1.40467 c 0.0983,0 0.145681,0.0303 0.188702,0.0843 0.04302,0.054 0.07215,0.1416 0.07209,0.23058 -5.7e-5,0.089 -0.02897,0.17383 -0.07209,0.22793 -0.04312,0.0541 -0.09085,0.0864 -0.188702,0.0864 h -1.460856 c 0.02698,-0.0465 0.0502,-0.0964 0.06785,-0.15054 0.05052,-0.15503 0.04513,-0.32725 -0.01167,-0.47865 z" />
  </g>
</svg>
